<mxfile host="app.diagrams.net" modified="2024-03-12T23:25:26.526Z" agent="Mozilla/5.0 (Windows NT 10.0; Win64; x64) AppleWebKit/537.36 (KHTML, like Gecko) Chrome/122.0.0.0 Safari/537.36" etag="UEykzJVNP-ueN-r7MELv" version="24.0.2" type="github">
  <diagram name="Page-1" id="QH_S6zOvTByLJg0bczfX">
    <mxGraphModel dx="989" dy="541" grid="1" gridSize="10" guides="1" tooltips="1" connect="1" arrows="1" fold="1" page="1" pageScale="1" pageWidth="1100" pageHeight="850" math="0" shadow="0">
      <root>
        <mxCell id="0" />
        <mxCell id="1" parent="0" />
        <mxCell id="jADfZYqo96flMmdXh0E9-1" value="" style="rounded=0;whiteSpace=wrap;html=1;fillColor=none;fontFamily=Comic Sans MS;" vertex="1" parent="1">
          <mxGeometry x="180" y="380" width="820" height="110" as="geometry" />
        </mxCell>
        <mxCell id="jADfZYqo96flMmdXh0E9-2" value="Worker" style="rounded=0;fillColor=none;fontStyle=1;direction=west;horizontal=0;fontFamily=Comic Sans MS;" vertex="1" parent="1">
          <mxGeometry x="180" y="380" width="40" height="110" as="geometry" />
        </mxCell>
        <mxCell id="jADfZYqo96flMmdXh0E9-3" value="" style="rounded=0;whiteSpace=wrap;html=1;fillColor=none;movable=1;resizable=1;rotatable=1;deletable=1;editable=1;locked=0;connectable=1;fontFamily=Comic Sans MS;" vertex="1" parent="1">
          <mxGeometry x="180" y="210" width="820" height="170" as="geometry" />
        </mxCell>
        <mxCell id="jADfZYqo96flMmdXh0E9-4" value="Wrokaround" style="rounded=0;fillColor=none;fontStyle=1;direction=west;horizontal=0;movable=1;resizable=1;rotatable=1;deletable=1;editable=1;locked=0;connectable=1;fontFamily=Comic Sans MS;" vertex="1" parent="1">
          <mxGeometry x="180" y="210" width="40" height="170" as="geometry" />
        </mxCell>
        <mxCell id="jADfZYqo96flMmdXh0E9-5" value="" style="rounded=0;whiteSpace=wrap;html=1;fillColor=none;movable=1;resizable=1;rotatable=1;deletable=1;editable=1;locked=0;connectable=1;fontFamily=Comic Sans MS;" vertex="1" parent="1">
          <mxGeometry x="180" y="100" width="820" height="110" as="geometry" />
        </mxCell>
        <mxCell id="jADfZYqo96flMmdXh0E9-6" value="Clientes" style="rounded=0;fillColor=none;fontStyle=1;direction=west;horizontal=0;movable=1;resizable=1;rotatable=1;deletable=1;editable=1;locked=0;connectable=1;fontFamily=Comic Sans MS;" vertex="1" parent="1">
          <mxGeometry x="180" y="100" width="40" height="110" as="geometry" />
        </mxCell>
        <mxCell id="jADfZYqo96flMmdXh0E9-7" value="Fluxograma de Reclamação WorkAround" style="rounded=0;fillColor=none;fontStyle=1;fontFamily=Comic Sans MS;" vertex="1" parent="1">
          <mxGeometry x="180" y="50" width="820" height="50" as="geometry" />
        </mxCell>
        <mxCell id="jADfZYqo96flMmdXh0E9-8" style="edgeStyle=orthogonalEdgeStyle;rounded=0;orthogonalLoop=1;jettySize=auto;html=1;entryX=0.5;entryY=1;entryDx=0;entryDy=0;exitX=1;exitY=0.5;exitDx=0;exitDy=0;" edge="1" parent="1" source="jADfZYqo96flMmdXh0E9-19" target="jADfZYqo96flMmdXh0E9-18">
          <mxGeometry relative="1" as="geometry">
            <mxPoint x="312.4999835991598" y="430.0344827586207" as="sourcePoint" />
            <mxPoint x="370" y="435.0000000000001" as="targetPoint" />
          </mxGeometry>
        </mxCell>
        <mxCell id="jADfZYqo96flMmdXh0E9-20" style="edgeStyle=orthogonalEdgeStyle;rounded=0;orthogonalLoop=1;jettySize=auto;html=1;entryX=0.5;entryY=0;entryDx=0;entryDy=0;exitX=1;exitY=0.5;exitDx=0;exitDy=0;" edge="1" parent="1" source="jADfZYqo96flMmdXh0E9-11" target="jADfZYqo96flMmdXh0E9-18">
          <mxGeometry relative="1" as="geometry" />
        </mxCell>
        <mxCell id="jADfZYqo96flMmdXh0E9-11" value="Cliente tem alguma reclamação em relação ao worker" style="ellipse;whiteSpace=wrap;html=1;aspect=fixed;fontFamily=Comic Sans MS;" vertex="1" parent="1">
          <mxGeometry x="229.06" y="107.81" width="94.38" height="94.38" as="geometry" />
        </mxCell>
        <mxCell id="jADfZYqo96flMmdXh0E9-25" style="edgeStyle=orthogonalEdgeStyle;rounded=0;orthogonalLoop=1;jettySize=auto;html=1;entryX=0;entryY=0.5;entryDx=0;entryDy=0;" edge="1" parent="1" source="jADfZYqo96flMmdXh0E9-12" target="jADfZYqo96flMmdXh0E9-24">
          <mxGeometry relative="1" as="geometry" />
        </mxCell>
        <mxCell id="jADfZYqo96flMmdXh0E9-12" value="Uma resposta é retornada para quem abriu a solicitação" style="rounded=1;whiteSpace=wrap;html=1;fontFamily=Comic Sans MS;" vertex="1" parent="1">
          <mxGeometry x="610" y="252.5" width="140" height="72.5" as="geometry" />
        </mxCell>
        <mxCell id="jADfZYqo96flMmdXh0E9-22" style="edgeStyle=orthogonalEdgeStyle;rounded=0;orthogonalLoop=1;jettySize=auto;html=1;entryX=0;entryY=0.5;entryDx=0;entryDy=0;" edge="1" parent="1" source="jADfZYqo96flMmdXh0E9-14" target="jADfZYqo96flMmdXh0E9-12">
          <mxGeometry relative="1" as="geometry" />
        </mxCell>
        <mxCell id="jADfZYqo96flMmdXh0E9-14" value="O ticket é observado&lt;div&gt;pelo suporte da&amp;nbsp;&lt;/div&gt;&lt;div&gt;w&lt;span style=&quot;background-color: initial;&quot;&gt;orkaround&lt;/span&gt;&lt;/div&gt;" style="shape=parallelogram;perimeter=parallelogramPerimeter;whiteSpace=wrap;html=1;fixedSize=1;fontFamily=Comic Sans MS;" vertex="1" parent="1">
          <mxGeometry x="430" y="249.38" width="157.5" height="78.75" as="geometry" />
        </mxCell>
        <mxCell id="jADfZYqo96flMmdXh0E9-21" style="edgeStyle=orthogonalEdgeStyle;rounded=0;orthogonalLoop=1;jettySize=auto;html=1;entryX=0;entryY=0.5;entryDx=0;entryDy=0;" edge="1" parent="1" source="jADfZYqo96flMmdXh0E9-18" target="jADfZYqo96flMmdXh0E9-14">
          <mxGeometry relative="1" as="geometry" />
        </mxCell>
        <mxCell id="jADfZYqo96flMmdXh0E9-18" value="Worker ou Cliente abrem um ticket de reportar." style="rounded=1;whiteSpace=wrap;html=1;fontFamily=Comic Sans MS;" vertex="1" parent="1">
          <mxGeometry x="290" y="258.75" width="120" height="60" as="geometry" />
        </mxCell>
        <mxCell id="jADfZYqo96flMmdXh0E9-19" value="Worker tem alguma reclamação em relação ao Cliente" style="ellipse;whiteSpace=wrap;html=1;aspect=fixed;fontFamily=Comic Sans MS;" vertex="1" parent="1">
          <mxGeometry x="229.06" y="387.81" width="94.38" height="94.38" as="geometry" />
        </mxCell>
        <mxCell id="jADfZYqo96flMmdXh0E9-24" value="&lt;div&gt;Caso o usuário que reportou esteja correto o outro user receberá uma punição, podendo tomar um timeout nos serviços ou ser desligado do app&lt;/div&gt;" style="rounded=1;whiteSpace=wrap;html=1;fontFamily=Comic Sans MS;" vertex="1" parent="1">
          <mxGeometry x="780" y="246.25" width="190" height="85" as="geometry" />
        </mxCell>
      </root>
    </mxGraphModel>
  </diagram>
</mxfile>
